<svg xmlns="http://www.w3.org/2000/svg" width="512" height="256" viewBox="0 0 135.466 67.733"><path d="M56.858 38.6c0 3.899-4.414 7.501-11.575 9.445s-15.977 1.933-23.116-.028-11.514-5.574-11.471-9.473M53.557 19.9c0 3.899-4.101 7.501-10.755 9.445s-14.844 1.933-21.478-.029-10.698-5.574-10.658-9.473" paint-order="markers fill stroke" fill="none" stroke="#fff" stroke-linejoin="round" stroke-width="8"/><path d="M6.65 33.86V1.638l9.836.002c9.875.002 13.249.127 17.046.632 4.029.536 8.535 1.847 11.551 3.362 7.998 4.017 13.828 12.003 15.408 21.106 1.069 6.161.678 12.701-1.075 17.98-2.564 7.721-7.819 14.007-14.528 17.376a29.53 29.53 0 0 1-6.639 2.472c-4.828 1.229-8.967 1.515-21.939 1.515H6.649zm23.143 24.932c7.615-.85 12.342-2.848 16.388-6.927 2.356-2.376 3.81-4.74 4.863-7.911 1.917-5.772 1.844-15.046-.162-20.596-2.249-6.222-6.965-10.642-13.758-12.893-4.136-1.37-6.976-1.707-15.475-1.834l-6.631-.099v50.66l6.542-.105c3.598-.058 7.304-.19 8.234-.294z" fill="#fff" paint-order="stroke fill markers"/><text xml:space="preserve" x="52.324" y="65.314" font-weight="bold" font-size="45.861" font-family="Leelawadee UI" fill="#fff"><tspan x="52.324" y="65.314">atel</tspan></text></svg>