<?xml version="1.0" encoding="UTF-8" standalone="no"?>
<!-- Created with Inkscape (http://www.inkscape.org/) -->

<svg
   xmlns:dc="http://purl.org/dc/elements/1.1/"
   xmlns:cc="http://creativecommons.org/ns#"
   xmlns:rdf="http://www.w3.org/1999/02/22-rdf-syntax-ns#"
   xmlns:svg="http://www.w3.org/2000/svg"
   xmlns="http://www.w3.org/2000/svg"
   xmlns:sodipodi="http://sodipodi.sourceforge.net/DTD/sodipodi-0.dtd"
   xmlns:inkscape="http://www.inkscape.org/namespaces/inkscape"
   width="256"
   height="256"
   viewBox="0 0 67.733332 67.733335"
   version="1.1"
   id="svg8"
   inkscape:version="0.92.4 (5da689c313, 2019-01-14)"
   sodipodi:docname="logo.svg">
  <defs
     id="defs2" />
  <sodipodi:namedview
     id="base"
     pagecolor="#ffffff"
     bordercolor="#666666"
     borderopacity="1.0"
     inkscape:pageopacity="0.0"
     inkscape:pageshadow="2"
     inkscape:zoom="1.4"
     inkscape:cx="86.929518"
     inkscape:cy="200.11389"
     inkscape:document-units="mm"
     inkscape:current-layer="layer1"
     showgrid="false"
     units="px"
     inkscape:window-width="1920"
     inkscape:window-height="1017"
     inkscape:window-x="-8"
     inkscape:window-y="-8"
     inkscape:window-maximized="1" />
  <metadata
     id="metadata5">
    <rdf:RDF>
      <cc:Work
         rdf:about="">
        <dc:format>image/svg+xml</dc:format>
        <dc:type
           rdf:resource="http://purl.org/dc/dcmitype/StillImage" />
        <dc:title></dc:title>
      </cc:Work>
    </rdf:RDF>
  </metadata>
  <g
     inkscape:label="Layer 1"
     inkscape:groupmode="layer"
     id="layer1"
     transform="translate(0,-229.26665)">
    <path
       style="opacity:1;fill:none;fill-opacity:1;fill-rule:nonzero;stroke:#ffffff;stroke-width:7.99999762;stroke-linecap:butt;stroke-linejoin:round;stroke-miterlimit:4;stroke-dasharray:none;stroke-dashoffset:0;stroke-opacity:1;paint-order:markers fill stroke"
       id="path1975-9-3"
       sodipodi:type="arc"
       sodipodi:cx="33.777504"
       sodipodi:cy="267.86646"
       sodipodi:rx="23.080824"
       sodipodi:ry="10.895106"
       sodipodi:start="0"
       sodipodi:end="3.1468201"
       d="m 56.858328,267.86646 a 23.080824,10.895106 0 0 1 -11.575259,9.44491 23.080824,10.895106 0 0 1 -23.115566,-0.0285 23.080824,10.895106 0 0 1 -11.470508,-9.47335"
       sodipodi:open="true" />
    <path
       style="opacity:1;fill:none;fill-opacity:1;fill-rule:nonzero;stroke:#ffffff;stroke-width:7.99999857;stroke-linecap:butt;stroke-linejoin:round;stroke-miterlimit:4;stroke-dasharray:none;stroke-dashoffset:0;stroke-opacity:1;paint-order:markers fill stroke"
       id="path1975-9-3-3"
       sodipodi:type="arc"
       sodipodi:cx="32.110889"
       sodipodi:cy="249.17389"
       sodipodi:rx="21.445929"
       sodipodi:ry="10.895106"
       sodipodi:start="0"
       sodipodi:end="3.1468201"
       d="m 53.556818,249.17389 a 21.445929,10.895106 0 0 1 -10.755343,9.44492 21.445929,10.895106 0 0 1 -21.47821,-0.0285 21.445929,10.895106 0 0 1 -10.658011,-9.47335"
       sodipodi:open="true" />
    <path
       style="opacity:1;fill:#ffffff;fill-opacity:1;fill-rule:nonzero;stroke:#ffffff;stroke-width:1.00000012;stroke-linecap:round;stroke-linejoin:miter;stroke-miterlimit:4;stroke-dasharray:none;stroke-dashoffset:0;stroke-opacity:1;paint-order:stroke fill markers"
       d="m 6.6500435,263.13319 v -32.22247 l 9.8358625,0.002 c 9.875265,0.002 13.249385,0.1268 17.045864,0.63162 4.029434,0.53579 8.535043,1.84712 11.551038,3.36184 7.998174,4.01694 13.828107,12.00278 15.408247,21.10627 1.069383,6.1609 0.678467,12.70071 -1.074782,17.9805 -2.56383,7.72074 -7.81946,14.0068 -14.527543,17.37579 -2.335144,1.17279 -4.066426,1.8175 -6.639299,2.4724 -4.828222,1.22898 -8.967397,1.51477 -21.938509,1.51477 H 6.6500435 Z M 29.793251,288.0648 c 7.614946,-0.84955 12.342459,-2.84791 16.387822,-6.92728 2.356517,-2.37632 3.809564,-4.74031 4.862717,-7.91129 1.917051,-5.77211 1.844282,-15.04603 -0.161617,-20.5965 -2.248604,-6.22206 -6.964822,-10.6416 -13.758165,-12.8927 -4.135586,-1.37042 -6.975683,-1.70694 -15.475382,-1.83372 l -6.631423,-0.0989 v 25.32978 25.32977 l 6.542405,-0.10523 c 3.598332,-0.0579 7.303467,-0.19015 8.233643,-0.29392 z"
       id="path4665"
       inkscape:connector-curvature="0" />
  </g>
</svg>
